Coordinates
version=1
nRows=29
nColumns=24
inDegrees=yes

Units are S.I. units (second, meters, Newtons, ...)
Angles are in degrees.

endheader
time	pelvis_tilt	pelvis_list	pelvis_rotation	pelvis_tx	pelvis_ty	pelvis_tz	hip_flexion_r	hip_adduction_r	hip_rotation_r	knee_angle_r	ankle_angle_r	subtalar_angle_r	mtp_angle_r	hip_flexion_l	hip_adduction_l	hip_rotation_l	knee_angle_l	ankle_angle_l	subtalar_angle_l	mtp_angle_l	lumbar_extension	lumbar_bending	lumbar_rotation
      0.59200000	     -7.16598741	      3.18397701	     12.40435841	     -0.80666770	      0.87165186	      0.29217028	     36.35297612	     -7.05586677	    -10.86845150	     -5.55051128	      5.69981739	     -0.06869348	      4.95224049	    -14.71229555	      2.61838240	      6.27282248	     -9.05098362	     12.01128761	      3.34420967	     16.72681668	      1.93169324	     -6.23960194	    -14.30384095
      0.59616667	     -7.15912324	      3.07710126	     12.48872074	     -0.80046602	      0.87084433	      0.29238365	     36.41892887	     -6.93288786	    -10.92557243	     -6.21663304	      5.60582386	     -0.24165702	      4.93938970	    -14.81825189	      2.40020619	      6.26641427	     -9.61064226	     11.80543447	      3.26076987	     16.74383356	      1.97953162	     -6.04697017	    -14.22191533
      0.60033333	     -7.19748485	      2.95808338	     12.55788607	     -0.79422941	      0.86998884	      0.29269587	     36.48787189	     -6.77124705	    -10.80346871	     -6.79834182	      5.28766628	     -0.80307731	      4.89666499	    -14.80165762	      2.16882333	      6.07441361	    -10.32225656	     11.69759123	      3.48835062	     16.95540558	      2.12021106	     -5.83777198	    -14.03797679
      0.60450000	     -7.21125395	      2.81075204	     12.61280190	     -0.78790113	      0.86921217	      0.29302716	     36.52202803	     -6.57109455	    -10.75378001	     -7.38421266	      4.88982240	     -1.33372134	      4.88888952	    -14.83063182	      1.90524383	      5.92913787	    -10.97827587	     11.52932259	      3.60442469	     17.17194259	      2.24898507	     -5.59276439	    -13.98905872
      0.60866667	     -7.22554983	      2.64806650	     12.66072579	     -0.78153741	      0.86848053	      0.29338814	     36.53590506	     -6.34682152	    -10.68201860	     -7.94268555	      4.44685871	     -1.86541426	      4.90175322	    -14.83108724	      1.62701754	      5.78543649	    -11.68546860	     11.26937721	      3.69115558	     17.38471029	      2.36538748	     -5.31313700	    -13.91387571
      0.61283333	     -7.19801547	      2.49553671	     12.67583065	     -0.77513062	      0.86782030	      0.29383616	     36.50927484	     -6.09862615	    -10.57903014	     -8.51562025	      3.90489169	     -2.56361409	      4.94948479	    -14.86655807	      1.34885099	      5.56223872	    -12.41694794	     11.06554232	      3.84674187	     17.73503177	      2.44664476	     -5.06554787	    -13.81401655
      0.61700000	     -7.19886784	      2.32535712	     12.68505719	     -0.76868607	      0.86716735	      0.29431003	     36.50212478	     -5.83261135	    -10.47329152	     -9.07307254	      3.30632494	     -3.23235707	      5.02679730	    -14.85304498	      1.06309218	      5.38026340	    -13.17465413	     10.77419908	      3.92742149	     18.14822666	      2.55176826	     -4.79390654	    -13.70194327
      0.62116667	     -7.20722321	      2.14920265	     12.68340957	     -0.76219523	      0.86653461	      0.29481069	     36.49989193	     -5.55913230	    -10.38977118	     -9.63130649	      2.69269319	     -3.80561218	      6.22238268	    -14.79277572	      0.76222518	      5.09102035	    -13.99603872	     10.39554194	      4.11198916	     22.98067300	      2.69609136	     -4.51338766	    -13.60484040
      0.62533333	     -7.18664700	      1.96024696	     12.65986518	     -0.75567409	      0.86599875	      0.29534441	     36.46683522	     -5.25240691	    -10.28214563	    -10.18872243	      1.95596896	     -4.51761512	      6.21778342	    -14.79205104	      0.46494349	      4.95825089	    -14.75974084	      9.98371039	      3.99997822	     23.05843296	      2.78073718	     -4.19428630	    -13.45449886
      0.62950000	     -7.19352522	      1.77078880	     12.62620447	     -0.74913481	      0.86545628	      0.29591706	     36.46784311	     -4.94398988	    -10.15743900	    -10.76006008	      1.21602495	     -5.21029116	      6.24090161	    -14.72580324	      0.16909039	      4.77406242	    -15.59055081	      9.57722638	      4.02316668	     23.19752380	      2.91663474	     -3.89017507	    -13.29942334
      0.63366667	     -7.20030607	      1.56981787	     12.57536783	     -0.74256886	      0.86494846	      0.29653448	     36.47353762	     -4.61474558	    -10.02120356	    -11.33951927	      0.45486724	     -5.89572675	      6.28592430	    -14.63841807	     -0.13678992	      4.57919333	    -16.45675359	      9.12577355	      4.04574984	     23.39168363	      3.05679766	     -3.56986114	    -13.13126145
      0.63783333	     -7.21380564	      1.36610630	     12.51488632	     -0.73599217	      0.86447879	      0.29717915	     36.49724016	     -4.28243191	     -9.88247611	    -11.94756874	     -0.29854480	     -6.54974574	      6.34773531	    -14.51790411	     -0.44177956	      4.38367649	    -17.36026948	      8.63759351	      4.05635808	     23.63674020	      3.19933640	     -3.24963536	    -12.95728014
      0.64200000	     -7.22915681	      1.15597126	     12.44181581	     -0.72941121	      0.86404428	      0.29785922	     36.53363980	     -3.93890579	     -9.73169103	    -12.58025688	     -1.03751368	     -7.18903278	      6.42845380	    -14.36822413	     -0.75165766	      4.18314077	    -18.30747010	      8.11616618	      4.06365741	     23.94378334	      3.34511023	     -2.92240507	    -12.76744333
      0.64616667	     -7.24898826	      0.94062792	     12.35717085	     -0.72282613	      0.86363798	      0.29856215	     36.59041277	     -3.59032368	     -9.58317021	    -13.24960506	     -1.73641075	     -7.77518497	      6.52455800	    -14.19410915	     -1.06427677	      3.98156922	    -19.28623766	      7.54471926	      4.05854751	     24.31109937	      3.49785976	     -2.58553767	    -12.57266624
      0.65033333	     -7.28179151	      0.72677473	     12.25921574	     -0.71624106	      0.86325397	      0.29928940	     36.68262008	     -3.24481702	     -9.43761384	    -13.97334899	     -2.37275388	     -8.29138126	      6.61827117	    -13.98096510	     -1.36763974	      3.79118329	    -20.29872623	      6.94261297	      4.04034144	     24.69255065	      3.66275525	     -2.25241665	    -12.37234111
      0.65450000	     -7.29071702	      0.48644228	     12.15241236	     -0.70963949	      0.86293182	      0.30005185	     36.75855739	     -2.87030321	     -9.31324801	    -14.72111784	     -2.90715922	     -8.68873226	      7.80619561	    -13.74808826	     -1.72052619	      3.50340869	    -21.36905509	      6.28332634	      4.08241677	     29.45636802	      3.79680171	     -1.88022361	    -12.22955397
      0.65866667	     -7.33086371	      0.28035402	     12.04263052	     -0.70307661	      0.86263041	      0.30078833	     36.89150597	     -2.53939725	     -9.17425732	    -15.53755375	     -3.40505222	     -9.10087094	      7.78487505	    -13.48408576	     -2.00061879	      3.38082558	    -22.43907005	      5.55254709	      3.94195553	     29.49879380	      3.95681613	     -1.55439422	    -12.01129144
      0.66283333	     -7.36513072	      0.05651260	     11.92308988	     -0.69652108	      0.86235662	      0.30156406	     37.03113253	     -2.18766127	     -9.03369842	    -16.38654537	     -3.80202228	     -9.45360291	      7.76599473	    -13.18361504	     -2.31223174	      3.19302408	    -23.57653329	      4.85472917	      3.91159631	     29.57702444	      4.11721972	     -1.21061130	    -11.80603901
      0.66700000	     -7.39683002	     -0.17075169	     11.79313001	     -0.68997540	      0.86212099	      0.30235819	     37.18037606	     -1.83019652	     -8.89869238	    -17.27144398	     -4.10958462	     -9.74155063	      7.74631315	    -12.85683873	     -2.62893449	      2.99027479	    -24.75295819	      4.11269832	      3.89090273	     29.67931007	      4.26850865	     -0.85511582	    -11.60815007
      0.67116667	     -7.42369603	     -0.40300066	     11.66298660	     -0.68344411	      0.86193127	      0.30315340	     37.33050740	     -1.47055306	     -8.77211326	    -18.18147468	     -4.31622293	     -9.97495567	      7.72231337	    -12.49589521	     -2.95548799	      2.78280631	    -25.98285878	      3.34061829	      3.87923121	     29.80558552	      4.41195731	     -0.49791300	    -11.41602509
      0.67533333	     -7.44424469	     -0.63404689	     11.52175803	     -0.67693323	      0.86178229	      0.30395194	     37.48101979	     -1.10889146	     -8.65238577	    -19.11476573	     -4.44355564	    -10.14386453	      7.69421193	    -12.12189820	     -3.27910405	      2.57754595	    -27.23539259	      2.52465120	      3.84610751	     29.93379771	      4.54276406	     -0.13278810	    -11.23163083
      0.67950000	     -7.45654925	     -0.86885392	     11.37944096	     -0.67044038	      0.86168060	      0.30475698	     37.62028749	     -0.74230435	     -8.54139644	    -20.05346306	     -4.47922616	    -10.26318179	      7.66037141	    -11.72115687	     -3.61137024	      2.37300732	    -28.53391280	      1.67712902	      3.80792211	     30.05984267	      4.66013722	      0.23614557	    -11.05300011
      0.68366667	     -7.45910379	     -1.10664272	     11.23253449	     -0.66396869	      0.86163265	      0.30556720	     37.74325306	     -0.36977318	     -8.44096018	    -20.98832247	     -4.44212960	    -10.34693002	      7.61828498	    -11.29900759	     -3.95445391	      2.14687521	    -29.86633070	      0.79849902	      3.78653099	     30.18773669	      4.76225196	      0.61054693	    -10.87868191
      0.68783333	     -7.42780395	     -1.35595773	     11.08300565	     -0.65750196	      0.86167714	      0.30636542	     37.81394569	      0.02198807	     -8.35277602	    -21.89849632	     -4.30413921	    -10.39453600	      7.59589948	    -10.89799147	     -4.31379907	      1.94075405	    -31.20130085	     -0.16647878	      3.69919094	     30.24288322	      4.81809914	      1.01603374	    -10.76399294
      0.69200000	     -7.41115474	     -1.60065783	     10.93079658	     -0.65108608	      0.86173116	      0.30716764	     37.88942829	      0.40793118	     -8.27208112	    -22.78919909	     -4.13616945	    -10.40613497	      7.56687109	    -10.44073267	     -4.67222420	      1.71507787	    -32.58956642	     -1.09349000	      3.65302891	     30.29477602	      4.89149258	      1.40601343	    -10.61661829
      0.69616667	     -7.38058131	     -1.85072131	     10.77333130	     -0.64469806	      0.86183726	      0.30797973	     37.93233627	      0.80581473	     -8.20539469	    -23.64755720	     -3.91520608	    -10.39621165	      7.53246780	     -9.97296997	     -5.04748741	      1.46549452	    -34.00109637	     -2.05762583	      3.61250006	     30.33294420	      4.94519680	      1.80029356	    -10.46350432
      0.70033333	     -7.34604139	     -2.10258297	     10.61393273	     -0.63835756	      0.86198035	      0.30879790	     37.95131740	      1.20598697	     -8.16467688	    -24.46655142	     -3.66082777	    -10.33427473	      7.46244551	     -9.46874212	     -5.43948988	      1.17888471	    -35.45897446	     -3.02031098	      3.60659895	     30.37589023	      5.00035293	      2.18779963	    -10.26416752
      0.70450000	     -7.26053019	     -2.34043602	     10.45566127	     -0.63204414	      0.86225273	      0.30958192	     37.88668424	      1.60389740	     -8.13284119	    -25.24008280	     -3.32917039	    -10.35053966	      7.43904463	     -9.01608121	     -5.81753945	      0.92355570	    -36.89252767	     -4.04619555	      3.47602227	     30.36998787	      4.98305186	      2.57332312	    -10.16976910
      0.70866667	     -7.21260505	     -2.61121619	     10.27966021	     -0.62575746	      0.86251798	      0.31040248	     37.82495857	      2.04522787	     -8.07192572	    -25.92467425	     -2.99258280	    -10.24630899	      7.39569298	     -8.50657407	     -6.22761550	      0.66451996	    -38.32371466	     -5.07765888	      3.40956878	     30.34272298	      5.00140032	      3.01101918	    -10.02110022
